<?xml version="1.0" standalone="no"?>
<!DOCTYPE svg PUBLIC "-//W3C//DTD SVG 20010904//EN"
 "http://www.w3.org/TR/2001/REC-SVG-20010904/DTD/svg10.dtd">
<svg version="1.0" xmlns="http://www.w3.org/2000/svg"
 width="836.000000pt" height="836.000000pt" viewBox="0 0 836.000000 836.000000"
 preserveAspectRatio="xMidYMid meet">
<metadata>
Created by potrace 1.14, written by Peter Selinger 2001-2017
</metadata>
<g transform="translate(0.000000,836.000000) scale(0.100000,-0.100000)"
fill="#000000" stroke="none">
<path d="M3937 8354 c-1 -1 -40 -4 -87 -8 -47 -3 -96 -8 -110 -10 -14 -3 -45
-7 -70 -10 -25 -3 -54 -8 -65 -10 -11 -2 -58 -11 -105 -20 -144 -27 -181 -36
-330 -78 -222 -63 -421 -138 -606 -231 -106 -52 -274 -145 -284 -156 -3 -4
-16 -12 -30 -19 -14 -7 -60 -39 -104 -70 -43 -31 -86 -61 -94 -67 -50 -32
-222 -186 -310 -277 -120 -125 -282 -323 -282 -347 0 -5 -4 -11 -8 -13 -17 -6
-123 -184 -186 -308 -105 -210 -210 -490 -241 -650 -2 -8 -4 -15 -5 -15 -1 0
-3 -11 -5 -25 -6 -35 -13 -65 -15 -65 -1 0 -4 -13 -6 -28 -1 -16 -8 -52 -13
-80 -6 -29 -13 -72 -17 -97 -3 -25 -7 -58 -9 -75 -24 -173 -24 -602 0 -765 2
-14 7 -45 10 -70 3 -25 11 -72 17 -105 6 -33 12 -71 14 -85 3 -21 52 -220 70
-285 3 -11 7 -27 9 -35 2 -8 4 -15 5 -15 1 0 3 -7 5 -15 3 -15 51 -161 62
-190 4 -8 7 -17 8 -20 1 -3 7 -18 13 -33 7 -16 12 -31 12 -34 0 -5 12 -32 59
-136 17 -37 31 -70 31 -72 0 -7 84 -175 140 -280 61 -114 158 -267 279 -440
57 -82 107 -152 110 -155 3 -3 22 -27 41 -55 19 -27 38 -54 43 -60 4 -5 25
-35 47 -65 22 -30 44 -60 49 -66 5 -6 40 -54 78 -105 37 -52 73 -100 80 -107
7 -8 27 -35 45 -60 17 -26 35 -49 38 -52 3 -3 26 -32 51 -65 24 -33 74 -99
111 -147 38 -47 68 -89 68 -93 0 -3 6 -12 13 -19 20 -22 62 -74 169 -216 57
-75 123 -162 148 -194 25 -32 73 -94 108 -139 34 -45 66 -87 71 -93 5 -6 71
-91 147 -190 76 -98 140 -181 143 -184 3 -3 31 -39 63 -80 31 -41 66 -86 77
-99 12 -13 21 -27 21 -30 0 -3 16 -23 36 -43 19 -21 32 -38 27 -38 -4 0 -3 -4
3 -8 6 -4 76 -90 155 -192 79 -102 149 -192 156 -200 36 -45 111 -140 128
-165 11 -15 27 -35 36 -44 8 -9 29 -34 45 -56 62 -85 42 -79 259 -79 107 0
195 -4 195 -9 0 -18 23 9 107 126 48 67 91 127 95 132 5 6 35 48 68 95 33 47
63 90 68 95 4 6 19 26 32 45 13 19 28 40 33 45 8 10 184 257 235 330 16 22
110 156 210 298 100 142 182 262 182 267 0 4 4 10 8 12 5 2 76 100 158 218 82
118 152 216 156 218 5 2 8 10 8 18 0 8 4 14 9 14 5 0 11 8 15 18 3 9 32 55 66
102 33 47 64 92 70 100 5 8 38 56 72 106 35 50 68 98 73 106 6 9 89 135 186
280 235 351 349 527 349 538 0 6 4 10 8 10 5 0 15 12 23 28 7 15 37 63 65 107
124 194 278 463 341 595 49 104 113 258 113 272 0 8 4 18 9 24 4 5 24 61 45
124 20 63 41 130 47 148 6 18 12 42 13 55 2 12 6 29 9 37 6 15 35 145 43 190
16 86 24 141 29 185 3 28 8 59 10 70 19 97 26 527 11 680 -20 202 -36 296 -91
525 -21 89 -95 296 -141 395 -15 33 -28 62 -29 65 -2 14 -85 171 -110 210 -16
25 -30 47 -30 50 -1 10 -124 188 -150 216 -5 7 -19 24 -30 40 -23 31 -56 73
-100 124 -56 65 -280 285 -340 335 -33 27 -62 52 -65 55 -12 14 -211 152 -290
201 -82 50 -327 179 -342 179 -4 0 -31 11 -61 24 -45 21 -120 50 -152 60 -5 2
-17 6 -25 9 -25 10 -184 57 -205 61 -11 2 -40 9 -65 16 -53 14 -72 18 -120 26
-19 3 -42 7 -50 9 -8 3 -33 7 -55 10 -22 3 -56 8 -75 11 -118 17 -188 22 -445
30 -195 6 -504 11 -508 8z"/>
</g>
</svg>
